<?xml version="1.0" encoding="UTF-8"?>
<svg width="128px" height="128px" viewBox="0 0 128 128" version="1.1" xmlns="http://www.w3.org/2000/svg" xmlns:xlink="http://www.w3.org/1999/xlink">
    <title>icon@3x</title>
    <defs>
        <polygon id="path-1" points="0.0842105263 0.430877193 79.5691228 0.430877193 79.5691228 80 0.0842105263 80"></polygon>
    </defs>
    <g id="icon" stroke="none" stroke-width="1" fill="none" fill-rule="evenodd">
        <rect fill="#1A73E8" x="0" y="0" width="128" height="128"></rect>
        <g id="Icon_Reg_RGB_aiaibot" transform="translate(24.000000, 24.000000)">
            <mask id="mask-2" fill="white">
                <use xlink:href="#path-1"></use>
            </mask>
            <g id="Clip-2"></g>
            <path d="M51.8147368,60.8098246 C48.2792982,62.88 44.1768421,64.0870175 39.7852632,64.0870175 C26.6007018,64.0870175 15.914386,53.3992982 15.914386,40.2161404 C15.914386,27.0315789 26.6007018,16.3452632 39.7852632,16.3452632 C52.9684211,16.3452632 63.6547368,27.0315789 63.6547368,40.2161404 C63.6547368,44.64 62.4308772,48.7677193 60.3326316,52.32 L65.6435088,66.1291228 L51.8147368,60.8098246 Z M63.6547368,2.47298246 L63.6547368,8.40982456 C57.0007018,3.40350877 48.7340351,0.430877193 39.7852632,0.430877193 C17.8470175,0.430877193 0,18.2778947 0,40.2161404 C0,62.1529825 17.8470175,80 39.7852632,80 C48.7340351,80 57.0007018,77.0273684 63.6547368,72.0210526 L63.6547368,78.0645614 L79.5691228,78.0645614 L79.5691228,2.47298246 L63.6547368,2.47298246 L63.6547368,2.47298246 Z" id="Fill-1" fill="#FFFFFF" mask="url(#mask-2)"></path>
        </g>
    </g>
</svg>